<svg xmlns="http://www.w3.org/2000/svg" aria-label="MLWharf" viewBox="0 0 512 512"><path fill="#066da5" d="M326.06 212.5v-.051c0-12.52-6.452-22.873-17-27.531v-4.157c0-10.803-3.613-21.063-10.192-28.883-6.97-8.296-16.583-12.869-27.047-12.886-8.457-.008-17.824 4.471-23.723 8.713-6.545-18.896-22.38-31.74-39.848-31.765-17.391-.025-33.235 12.81-39.84 31.739-5.882-4.301-15.198-8.874-23.51-8.882-20.622-.026-37.426 18.827-37.469 42.049v4.08c-10.523 4.616-16.983 14.994-17 27.574v.06c0 16.762 11.739 28.483 28.56 28.509H297.5c16.788.017 28.535-11.722 28.56-28.569zm-144.5 0c0-3 2.44-5.44 5.44-5.44s5.44 2.44 5.44 5.44-2.44 5.44-5.44 5.44-5.44-2.44-5.44-5.44zm42.5 22.44v-19.38h53.848c1.351 4.887 5.788 8.5 11.092 8.5 6.375 0 11.56-5.185 11.56-11.56s-5.185-11.56-11.56-11.56c-5.313 0-9.741 3.613-11.092 8.5H224.06V195.483c0-6.783-4.751-11.534-11.56-11.543h-5.44v-19.847c4.888-1.352 8.5-5.789 8.5-11.093 0-6.375-5.185-11.56-11.56-11.56s-11.56 5.185-11.56 11.56c0 5.313 3.621 9.75 8.5 11.093v19.847h-49.589c-1.351-4.887-5.788-8.5-11.101-8.5-6.375 0-11.56 5.185-11.56 11.56s5.185 11.56 11.56 11.56c5.313 0 9.75-3.612 11.101-8.5H212.5c3.409.009 5.449 2.032 5.449 5.432v39.448h-98.932c-12.376-.025-20.91-7.718-22.185-19.38h79.076c1.351 4.888 5.788 8.5 11.1 8.5 6.376 0 11.56-5.185 11.56-11.56s-5.184-11.56-11.56-11.56c-5.312 0-9.749 3.613-11.1 8.5H96.773c.969-9.375 6.307-16.583 14.747-19.55a3.062 3.062 0 002.04-2.89v-6.154c.025-17.306 12.01-35.955 31.331-35.938 8.211.017 18.776 6.069 22.941 10.251.774.782 1.913 1.08 2.975.79s1.887-1.121 2.16-2.184c4.81-18.691 19.32-31.73 35.283-31.705 15.946.026 30.37 12.937 35.198 31.408v22.44c-4.887 1.351-8.5 5.788-8.5 11.092 0 6.375 5.185 11.56 11.56 11.56s11.552-5.185 11.552-11.56c0-5.312-3.613-9.741-8.5-11.092v-21.531c4.598-4.055 14.373-9.282 22.253-9.274 8.636.017 16.575 3.817 22.372 10.719 5.567 6.622 8.755 15.716 8.755 24.956V187c0 1.292.816 2.448 2.031 2.882 9.376 3.331 14.969 11.763 14.969 22.567v.042c-.026 13.456-9.036 22.474-22.44 22.449h-73.44zm59.5-22.44c0-3 2.44-5.44 5.44-5.44s5.44 2.44 5.44 5.44-2.44 5.44-5.44 5.44-5.44-2.44-5.44-5.44zM145.69 187c0 3-2.44 5.44-5.44 5.44s-5.44-2.44-5.44-5.44 2.44-5.44 5.44-5.44 5.44 2.44 5.44 5.44zM204 158.44c-3 0-5.44-2.44-5.44-5.44s2.44-5.44 5.44-5.44 5.44 2.44 5.44 5.44-2.44 5.44-5.44 5.44zm42.5 23.12c3 0 5.44 2.44 5.44 5.44s-2.44 5.44-5.44 5.44-5.44-2.44-5.44-5.44 2.44-5.44 5.44-5.44zm-38.25 195.5c17.391.017 33.227-12.818 39.84-31.739 5.881 4.31 15.197 8.874 23.519 8.891 10.464.017 20.103-4.59 27.14-12.971 6.545-7.794 10.302-18.385 10.32-29.078v-4.08c10.522-4.624 16.982-14.994 17-27.566v-.068c0-8.262-2.746-15.368-7.931-20.553-5.21-5.193-12.333-7.939-20.638-7.956H119.008c-16.795-.025-28.534 11.713-28.568 28.552v.059c0 12.52 6.46 22.865 17 27.523v4.157c0 10.803 3.621 21.063 10.192 28.883 6.97 8.304 16.574 12.877 27.046 12.894 8.458.009 17.834-4.471 23.724-8.712 6.545 18.904 22.38 31.739 39.848 31.764zm26.69-96.56c0 3-2.44 5.44-5.44 5.44s-5.44-2.44-5.44-5.44 2.44-5.44 5.44-5.44 5.44 2.44 5.44 5.44zm-61.88 59.041v-22.448c4.887-1.352 8.5-5.789 8.5-11.102 0-6.375-5.185-11.56-11.56-11.56s-11.56 5.185-11.56 11.56c0 5.304 3.613 9.75 8.5 11.101v21.531c-4.599 4.046-14.373 9.274-22.253 9.257-8.636-.009-16.575-3.808-22.363-10.71-5.585-6.639-8.585-15.853-8.755-25.016V306a3.075 3.075 0 00-2.032-2.881c-9.384-3.341-14.968-11.773-14.969-22.568v-.042c.009-6.639 2.143-12.283 6.163-16.312 4.02-4.029 9.639-6.154 16.269-6.137h73.44v19.371h-53.839c-1.352-4.887-5.789-8.5-11.101-8.5-6.375 0-11.56 5.186-11.56 11.56s5.185 11.56 11.56 11.56c5.304 0 9.75-3.612 11.101-8.5h53.839v13.958c0 6.791 4.751 11.526 11.56 11.543h5.44v19.839c-4.888 1.351-8.5 5.788-8.5 11.1 0 6.376 5.185 11.56 11.56 11.56s11.56-5.184 11.56-11.56c0-5.312-3.613-9.749-8.5-11.1V309.06h49.597c1.352 4.888 5.789 8.5 11.093 8.5 6.375 0 11.56-5.185 11.56-11.56s-5.185-11.56-11.56-11.56c-5.304 0-9.741 3.613-11.093 8.5H204c-3.409 0-5.449-2.023-5.449-5.423V258.06H297.5c6.638.009 12.282 2.142 16.303 6.163 3.383 3.374 5.33 7.93 5.89 13.217h-79.092c-1.352-4.887-5.789-8.5-11.093-8.5-6.375 0-11.56 5.185-11.56 11.56s5.185 11.56 11.56 11.56c5.304 0 9.741-3.612 11.093-8.5h79.135c-.978 9.376-6.307 16.584-14.756 19.55a3.07 3.07 0 00-2.04 2.89v6.154c-.009 9.282-3.256 18.445-8.883 25.152-5.856 6.97-13.82 10.803-22.448 10.786-8.211-.008-18.777-6.069-22.942-10.242a3.08 3.08 0 00-2.975-.8 3.062 3.062 0 00-2.159 2.194c-4.819 18.683-19.329 31.722-35.283 31.696-15.929-.017-30.345-12.92-35.19-31.399zM170 311.44c-3 0-5.44-2.44-5.44-5.44s2.44-5.44 5.44-5.44 5.44 2.44 5.44 5.44-2.44 5.44-5.44 5.44zm-37.06-30.94c0 3-2.44 5.44-5.44 5.44s-5.44-2.44-5.44-5.44 2.44-5.44 5.44-5.44 5.44 2.44 5.44 5.44zM270.81 306c0-3 2.44-5.44 5.44-5.44s5.44 2.44 5.44 5.44-2.44 5.44-5.44 5.44-5.44-2.44-5.44-5.44zm-58.31 28.56c3 0 5.44 2.44 5.44 5.44s-2.44 5.44-5.44 5.44-5.44-2.44-5.44-5.44 2.44-5.44 5.44-5.44z"/><path fill="#066da5" d="M472 228s-18-17-55-11c-4-29-35-46-35-46s-29 35-8 74c-6 3-16 7-31 7H68c-5 19-5 145 133 145 99 0 173-46 208-130 52 4 63-39 63-39"/></svg>
